<svg id="oct-chart" xmlns="http://www.w3.org/2000/svg" viewBox="0 0 1200 940" role="img" aria-labelledby="oct-title oct-desc">
<title id="oct-title">Octalysis: thiết kế v1 và hướng phát triển</title>
<desc id="oct-desc">Vùng xanh là thiết kế v1; viền đất nung nét đứt là hướng phát triển sau kiểm chứng. Meaning 4 đến 5; Empowerment 3 đến 5; Social Influence 3 đến 5; Unpredictability 5 đến 6; Avoidance 1 đến 1; Scarcity 2 đến 2; Ownership 6 đến 7; Accomplishment 5 đến 6. Điểm tương lai chỉ minh họa cường độ dự kiến khi cơ chế được thiết kế sâu hơn, không phải kết quả đã đạt.</desc>
<defs><linearGradient id="oct-blue" x1="0" y1="0" x2="1" y2="1"><stop stop-color="#168b95"/><stop offset="1" stop-color="#133d8c"/></linearGradient></defs>
<rect width="1200" height="940" rx="12" fill="var(--surface,#f5f0e8)"/>
<polygon points="600.0,260.0 734.4,315.6 790.0,450.0 734.4,584.4 600.0,640.0 465.6,584.4 410.0,450.0 465.6,315.6" fill="none" stroke="var(--line,#d5d9d4)" stroke-dasharray="4 5"/><polygon points="600.0,227.0 757.7,292.3 823.0,450.0 757.7,607.7 600.0,673.0 442.3,607.7 377.0,450.0 442.3,292.3" fill="none" stroke="var(--line,#d5d9d4)" stroke-dasharray="4 5"/><polygon points="600.0,194.0 781.0,269.0 856.0,450.0 781.0,631.0 600.0,706.0 419.0,631.0 344.0,450.0 419.0,269.0" fill="none" stroke="var(--line,#d5d9d4)" stroke-dasharray="4 5"/><polygon points="600.0,150.0 812.1,237.9 900.0,450.0 812.1,662.1 600.0,750.0 387.9,662.1 300.0,450.0 387.9,237.9" fill="none" stroke="var(--line,#d5d9d4)" stroke-dasharray="4 5"/><line x1="600" y1="450" x2="600.0" y2="150.0" stroke="var(--line,#d5d9d4)" stroke-dasharray="3 6"/><line x1="600" y1="450" x2="812.1" y2="237.9" stroke="var(--line,#d5d9d4)" stroke-dasharray="3 6"/><line x1="600" y1="450" x2="900.0" y2="450.0" stroke="var(--line,#d5d9d4)" stroke-dasharray="3 6"/><line x1="600" y1="450" x2="812.1" y2="662.1" stroke="var(--line,#d5d9d4)" stroke-dasharray="3 6"/><line x1="600" y1="450" x2="600.0" y2="750.0" stroke="var(--line,#d5d9d4)" stroke-dasharray="3 6"/><line x1="600" y1="450" x2="387.9" y2="662.1" stroke="var(--line,#d5d9d4)" stroke-dasharray="3 6"/><line x1="600" y1="450" x2="300.0" y2="450.0" stroke="var(--line,#d5d9d4)" stroke-dasharray="3 6"/><line x1="600" y1="450" x2="387.9" y2="237.9" stroke="var(--line,#d5d9d4)" stroke-dasharray="3 6"/><polygon id="oct-target" points="600.0,216.0 757.7,292.3 823.0,450.0 773.2,623.2 600.0,651.0 450.1,599.9 344.0,450.0 426.8,276.8" fill="url(#oct-blue)" fill-opacity=".86" stroke="#245c69" stroke-width="2.5"/><polygon id="oct-roadmap" points="600.0,205.0 773.2,276.8 845.0,450.0 781.0,631.0 600.0,651.0 450.1,599.9 333.0,450.0 419.0,269.0" fill="#A4533B" fill-opacity=".09" stroke="#A4533B" stroke-width="3" stroke-dasharray="9 6"/><polygon points="600.0,260.0 734.4,315.6 790.0,450.0 734.4,584.4 600.0,640.0 465.6,584.4 410.0,450.0 465.6,315.6" fill="var(--canvas,#faf9f5)" stroke="var(--ink,#252b32)" stroke-width="2"/><text x="600" y="300" text-anchor="middle" font-family="Arial,sans-serif" font-size="16" fill="var(--ink,#252b32)"><tspan x="600" dy="0">Meaning</tspan></text><text x="709" y="347" text-anchor="middle" font-family="Arial,sans-serif" font-size="16" fill="var(--ink,#252b32)"><tspan x="709" dy="0">Empowerment</tspan></text><text x="735" y="444" text-anchor="middle" font-family="Arial,sans-serif" font-size="16" fill="var(--ink,#252b32)"><tspan x="735" dy="0">Social</tspan><tspan x="735" dy="20">Influence</tspan></text><text x="706" y="547" text-anchor="middle" font-family="Arial,sans-serif" font-size="16" fill="var(--ink,#252b32)"><tspan x="706" dy="0">Unpredictability</tspan></text><text x="600" y="601" text-anchor="middle" font-family="Arial,sans-serif" font-size="16" fill="var(--ink,#252b32)"><tspan x="600" dy="0">Avoidance</tspan></text><text x="493" y="547" text-anchor="middle" font-family="Arial,sans-serif" font-size="16" fill="var(--ink,#252b32)"><tspan x="493" dy="0">Scarcity</tspan></text><text x="459" y="452" text-anchor="middle" font-family="Arial,sans-serif" font-size="16" fill="var(--ink,#252b32)"><tspan x="459" dy="0">Ownership</tspan></text><text x="492" y="347" text-anchor="middle" font-family="Arial,sans-serif" font-size="16" fill="var(--ink,#252b32)"><tspan x="492" dy="0">Accomplishment</tspan></text><text x="600" y="432" text-anchor="middle" font-family="Georgia,serif" font-size="22" fill="var(--ink,#252b32)">PET · Our Shared Sky</text>
<text x="600" y="481" text-anchor="middle" font-family="Arial,sans-serif" font-size="13" fill="var(--muted,#666)">Dấu ấn riêng · Tò mò · Đồng hành</text>
<text x="600" y="505" text-anchor="middle" font-family="Arial,sans-serif" font-size="12" fill="var(--muted,#666)">Xanh: v1 · Nét đứt: phát triển</text><line x1="600.0" y1="216.0" x2="600" y2="133" stroke="var(--muted,#657078)" stroke-width="1.8"/><text x="455" y="58" font-family="Arial,sans-serif" font-size="17" font-weight="700" fill="var(--ink,#252b32)">Meaning · 4 → 5</text><text x="455" y="85" font-family="Arial,sans-serif" font-size="14" fill="var(--body,#454c52)">F09 · PET từ bầu trời riêng</text><text x="455" y="107" font-family="Arial,sans-serif" font-size="14" fill="var(--body,#454c52)">G01 · Các chương cùng nhau</text><line x1="757.7" y1="292.3" x2="913" y2="228" stroke="var(--muted,#657078)" stroke-width="1.8"/><text x="923" y="150" font-family="Arial,sans-serif" font-size="17" font-weight="700" fill="var(--ink,#252b32)">Empowerment · 3 → 5</text><text x="923" y="177" font-family="Arial,sans-serif" font-size="14" fill="var(--body,#454c52)">G02 · Sắp ba ký ức</text><text x="923" y="199" font-family="Arial,sans-serif" font-size="14" fill="var(--body,#454c52)">Xem trước → sửa → lưu</text><line x1="823.0" y1="450.0" x2="934" y2="450" stroke="var(--muted,#657078)" stroke-width="1.8"/><text x="944" y="424" font-family="Arial,sans-serif" font-size="17" font-weight="700" fill="var(--ink,#252b32)">Social Influence · 3 → 5</text><text x="944" y="451" font-family="Arial,sans-serif" font-size="14" fill="var(--body,#454c52)">F20 · Chia sẻ chủ động</text><text x="944" y="473" font-family="Arial,sans-serif" font-size="14" fill="var(--body,#454c52)">Đồng hành · Chưa có bạn bè</text><line x1="773.2" y1="623.2" x2="912" y2="676" stroke="var(--muted,#657078)" stroke-width="1.8"/><text x="919" y="720" font-family="Arial,sans-serif" font-size="17" font-weight="700" fill="var(--ink,#252b32)">Unpredictability · 5 → 6</text><text x="919" y="747" font-family="Arial,sans-serif" font-size="14" fill="var(--body,#454c52)">F05 · Ngày hẹn bầu trời</text><text x="919" y="769" font-family="Arial,sans-serif" font-size="14" fill="var(--body,#454c52)">G03 · Chuyện nhỏ của PET</text><line x1="600.0" y1="651.0" x2="600" y2="772" stroke="var(--muted,#657078)" stroke-width="1.8"/><text x="450" y="832" font-family="Arial,sans-serif" font-size="17" font-weight="700" fill="var(--ink,#252b32)">Avoidance · 1 → 1</text><text x="450" y="859" font-family="Arial,sans-serif" font-size="14" fill="var(--body,#454c52)">F15 · Vắng không trừ</text><text x="450" y="881" font-family="Arial,sans-serif" font-size="14" fill="var(--body,#454c52)">F23 · Quay lại không nợ</text><line x1="450.1" y1="599.9" x2="286" y2="677" stroke="var(--muted,#657078)" stroke-width="1.8"/><text x="25" y="720" font-family="Arial,sans-serif" font-size="17" font-weight="700" fill="var(--ink,#252b32)">Scarcity · 2 → 2</text><text x="25" y="747" font-family="Arial,sans-serif" font-size="14" fill="var(--body,#454c52)">F05 · Lịch hẹn, không hạn quà</text><text x="25" y="769" font-family="Arial,sans-serif" font-size="14" fill="var(--body,#454c52)">F17 · Bỏ lỡ vẫn xem hồi tưởng</text><line x1="344.0" y1="450.0" x2="273" y2="450" stroke="var(--muted,#657078)" stroke-width="1.8"/><text x="24" y="424" font-family="Arial,sans-serif" font-size="17" font-weight="700" fill="var(--ink,#252b32)">Ownership · 6 → 7</text><text x="24" y="451" font-family="Arial,sans-serif" font-size="14" fill="var(--body,#454c52)">F09 · Danh tính PET ổn định</text><text x="24" y="473" font-family="Arial,sans-serif" font-size="14" fill="var(--body,#454c52)">F15 / F17 · Lịch sử không mất</text><line x1="426.8" y1="276.8" x2="285" y2="227" stroke="var(--muted,#657078)" stroke-width="1.8"/><text x="24" y="150" font-family="Arial,sans-serif" font-size="17" font-weight="700" fill="var(--ink,#252b32)">Accomplishment · 5 → 6</text><text x="24" y="177" font-family="Arial,sans-serif" font-size="14" fill="var(--body,#454c52)">F11–13 · Việc nhỏ tự chọn</text><text x="24" y="199" font-family="Arial,sans-serif" font-size="14" fill="var(--body,#454c52)">G01 · Ngày tích lũy, không streak</text><text x="26" y="914" font-family="Arial,sans-serif" font-size="13" fill="var(--muted,#666)">Thang 0–10 · Nhãn ghi v1 → hướng phát triển · Vùng trung tâm cố định; điểm nằm trên phần trục ngoài</text></svg>
